<?xml version="1.0" standalone="no"?>
<!DOCTYPE svg PUBLIC "-//W3C//DTD SVG 20010904//EN"
 "http://www.w3.org/TR/2001/REC-SVG-20010904/DTD/svg10.dtd">
<svg version="1.0" xmlns="http://www.w3.org/2000/svg"
 width="512.000000pt" height="512.000000pt" viewBox="0 0 512.000000 512.000000"
 preserveAspectRatio="xMidYMid meet">
<metadata>
Created by potrace 1.14, written by Peter Selinger 2001-2017
</metadata>
<g transform="translate(0.000000,512.000000) scale(0.100000,-0.100000)"
fill="#000000" stroke="none">
<path d="M2135 4919 c-165 -9 -310 -18 -323 -18 -17 -1 -27 -12 -42 -47 -11
-25 -20 -50 -20 -55 0 -5 325 -9 810 -9 485 0 810 4 810 9 0 10 -38 101 -42
101 -174 12 -739 39 -803 38 -49 0 -225 -9 -390 -19z"/>
<path d="M1155 4496 c-248 -224 -327 -304 -543 -544 l-253 -282 22 -50 c12
-27 24 -50 28 -50 8 0 1141 1133 1141 1141 0 6 -93 50 -102 48 -2 0 -133 -118
-293 -263z"/>
<path d="M3620 4739 c-24 -11 -46 -22 -49 -25 -5 -5 1130 -1144 1140 -1144 4
0 16 23 28 50 l22 51 -259 287 c-224 248 -298 322 -545 545 -157 141 -287 257
-289 257 -2 0 -23 -10 -48 -21z"/>
<path d="M1941 4716 c3 -3 36 -19 74 -35 39 -17 63 -30 55 -31 -8 0 -84 14
-169 30 -85 17 -163 30 -173 30 -11 0 -23 -11 -28 -25 -8 -22 -13 -24 -35 -15
-15 6 -28 10 -30 10 -2 0 -50 -68 -106 -151 -56 -82 -103 -148 -105 -146 -2 2
7 29 21 61 14 31 25 60 25 64 0 4 -193 -186 -430 -423 -236 -236 -428 -431
-426 -432 2 -2 30 8 61 22 32 14 60 23 62 21 2 -2 -64 -49 -146 -105 -83 -56
-151 -104 -151 -106 0 -2 4 -15 10 -30 9 -22 7 -27 -15 -35 -32 -12 -32 -20 5
-205 17 -82 30 -157 30 -165 -1 -8 -15 19 -33 60 l-32 75 -3 -312 c-1 -172 -1
-454 0 -625 l3 -313 32 75 c18 41 32 68 32 60 1 -8 -14 -92 -32 -187 l-34
-172 29 -10 c25 -9 27 -13 18 -36 -6 -15 -10 -28 -10 -30 0 -2 68 -50 150
-106 83 -56 149 -104 147 -106 -3 -2 -31 8 -62 22 -32 14 -59 24 -61 22 -2 -1
190 -196 426 -432 237 -237 430 -427 430 -423 0 4 -11 33 -25 64 -14 32 -24
59 -22 61 3 2 50 -64 106 -147 56 -82 107 -150 112 -150 6 0 19 5 30 11 17 9
21 6 30 -19 l10 -29 122 24 c67 12 151 29 187 36 l65 12 -89 5 -88 5 266 110
c146 60 266 112 266 115 0 3 -19 13 -42 22 -42 16 -38 17 162 17 200 0 204 -1
163 -17 -24 -9 -43 -19 -43 -22 0 -3 120 -55 266 -115 l266 -110 -88 -5 -89
-5 65 -12 c36 -7 120 -24 187 -36 l122 -24 10 29 c9 25 13 28 30 19 11 -6 24
-11 30 -11 5 0 56 68 112 150 56 83 104 149 106 147 2 -3 -8 -30 -22 -62 -14
-32 -25 -63 -25 -69 0 -6 196 185 435 424 239 239 431 436 427 438 -5 1 -35
-9 -66 -23 -32 -14 -60 -24 -62 -22 -2 2 63 50 146 106 82 56 150 104 150 106
0 2 -4 15 -10 29 -8 23 -6 28 19 39 l28 12 -33 170 c-18 94 -33 177 -33 185 0
8 14 -19 32 -60 l32 -75 3 312 c1 172 1 454 0 625 l-3 313 -32 -75 c-40 -94
-40 -76 1 130 l33 165 -29 13 c-24 10 -27 15 -18 31 5 11 10 24 10 30 0 6 -68
56 -151 112 -82 56 -148 103 -146 105 2 2 29 -7 61 -21 31 -14 60 -25 64 -25
4 0 -186 193 -423 430 -236 236 -431 428 -432 426 -2 -2 8 -30 22 -61 14 -32
24 -60 22 -62 -3 -2 -50 64 -106 147 -56 82 -104 150 -106 150 -2 0 -15 -4
-30 -10 -22 -9 -27 -7 -35 15 -5 14 -17 25 -28 25 -10 0 -88 -13 -173 -30 -85
-16 -161 -30 -169 -30 -8 1 16 14 55 31 38 16 71 32 74 35 2 2 -276 4 -619 4
-343 0 -621 -2 -619 -4z m1259 -85 c-8 -4 -129 -55 -267 -112 -139 -57 -253
-106 -253 -109 0 -3 17 -12 38 -22 36 -16 32 -16 -158 -16 -190 0 -194 0 -158
16 21 10 38 19 38 22 0 3 -114 52 -252 109 -139 57 -260 108 -268 112 -8 5
280 8 640 8 360 0 648 -3 640 -8z m-1170 -134 l294 -122 -255 -3 -255 -2 -182
-182 c-99 -100 -179 -184 -178 -186 2 -2 203 80 447 181 l444 184 48 -20 c26
-11 47 -22 47 -26 0 -9 -1031 -434 -1037 -427 -3 3 56 155 132 338 76 183 145
348 152 366 11 25 18 32 31 27 9 -3 150 -61 312 -128z m1542 -235 c83 -200
148 -365 145 -368 -6 -6 -1037 418 -1037 427 0 4 21 15 48 26 l47 20 444 -184
c244 -101 445 -183 447 -181 1 2 -79 86 -178 186 l-182 182 -255 2 -256 3 305
127 c168 69 309 125 314 124 4 -1 76 -165 158 -364z m-2131 -43 c-60 -145
-108 -265 -106 -267 2 -2 20 4 40 12 21 9 40 16 44 16 3 0 -57 -63 -134 -140
-76 -76 -140 -138 -142 -136 -2 2 4 20 12 41 9 20 15 38 13 40 -2 2 -115 -44
-253 -101 -137 -57 -259 -107 -270 -110 -11 -3 187 201 440 455 252 253 461
459 463 457 1 -2 -46 -122 -107 -267z m3045 -647 c-2 -1 -122 46 -267 107
-145 60 -265 108 -267 106 -2 -2 4 -20 13 -40 8 -21 14 -39 12 -41 -2 -2 -66
60 -142 136 -77 77 -137 140 -134 140 4 0 23 -7 44 -16 20 -8 38 -14 40 -12 2
2 -44 116 -101 253 -57 138 -107 259 -110 270 -3 11 201 -187 455 -440 253
-252 459 -461 457 -463z m-1307 466 l608 -251 247 -597 c136 -328 249 -605
252 -617 4 -14 -82 -232 -247 -630 l-252 -610 -607 -252 c-334 -138 -613 -251
-620 -251 -7 0 -285 113 -619 251 l-608 252 -252 609 c-166 401 -251 617 -247
631 3 12 116 289 252 617 l247 597 606 251 c333 138 612 251 619 252 8 0 287
-113 621 -252z m-1953 -335 c-28 -78 -422 -1023 -427 -1023 -4 0 -15 21 -26
48 l-20 47 184 444 c101 244 183 445 181 447 -2 1 -86 -79 -186 -178 l-182
-182 -2 -255 -3 -256 -124 300 c-68 165 -124 306 -125 313 -1 12 689 309 723
311 8 1 11 -5 7 -16z m3034 -129 c195 -81 359 -150 363 -154 4 -4 -50 -146
-120 -316 l-128 -309 -3 256 -2 255 -182 182 c-100 99 -184 179 -186 178 -2
-2 80 -203 181 -447 l183 -443 -20 -53 c-12 -29 -24 -49 -27 -45 -7 8 -429
1027 -429 1036 0 3 3 6 8 6 4 0 167 -66 362 -146z m-3659 -641 c57 -139 106
-253 109 -253 3 0 12 17 22 38 16 36 16 32 16 -163 1 -196 0 -199 -16 -157 -9
23 -19 42 -22 42 -3 0 -52 -114 -109 -252 -57 -139 -108 -260 -112 -268 -5 -8
-8 280 -8 640 0 360 3 648 8 640 4 -8 55 -129 112 -267z m4037 -699 l-3 -326
-110 266 c-60 146 -112 266 -115 266 -3 0 -12 -17 -22 -38 -16 -36 -16 -32
-16 158 0 190 0 194 16 158 10 -21 19 -38 22 -38 3 0 55 120 115 266 l110 266
3 -326 c1 -179 1 -473 0 -652z m-3620 -310 c117 -284 211 -518 208 -521 -5 -6
-713 283 -729 297 -4 3 50 145 120 315 l128 310 3 -256 2 -255 182 -182 c100
-99 184 -179 186 -178 1 2 -80 203 -181 447 l-184 444 20 48 c11 26 22 47 26
47 3 0 102 -232 219 -516z m3329 469 l20 -48 -184 -444 c-101 -244 -182 -445
-181 -447 2 -1 86 79 186 178 l182 182 2 255 3 256 128 -309 c70 -170 124
-313 120 -316 -15 -14 -724 -303 -729 -297 -6 6 418 1037 427 1037 4 0 15 -21
26 -47z m-3432 -957 c138 -57 251 -103 253 -101 2 1 -4 20 -12 40 -9 21 -16
40 -16 44 0 3 63 -57 140 -134 76 -76 138 -141 136 -143 -2 -2 -21 4 -41 13
-21 8 -39 14 -41 13 -1 -2 47 -122 107 -267 61 -145 108 -265 107 -267 -2 -2
-211 204 -463 457 -253 254 -451 458 -440 455 11 -3 133 -53 270 -110z m3200
-266 c-209 -209 -381 -380 -383 -380 -5 0 4 13 125 192 l114 168 174 117 c95
65 172 119 171 121 -5 4 -401 -161 -412 -172 -6 -6 -50 -108 -99 -226 -87
-215 -88 -215 -158 -287 -39 -40 -72 -71 -74 -69 -2 2 45 122 106 267 60 145
108 265 107 267 -2 1 -20 -5 -41 -13 -20 -9 -39 -15 -41 -13 -2 2 60 67 136
143 77 77 140 136 140 132 0 -4 -7 -24 -15 -44 -8 -20 -14 -37 -13 -39 2 -1
120 47 263 106 143 60 264 109 270 109 5 1 -161 -170 -370 -379z m-2178 -158
c277 -114 503 -210 503 -213 0 -4 -21 -15 -47 -26 l-48 -20 -444 184 c-244
101 -445 182 -447 181 -1 -2 79 -86 178 -186 l182 -182 255 -2 256 -3 -309
-128 c-170 -70 -312 -124 -316 -120 -9 10 -300 715 -300 727 0 11 -42 27 537
-212z m1781 201 c-8 -29 -290 -707 -298 -716 -3 -4 -146 50 -316 120 l-309
128 256 3 255 2 182 182 c99 100 179 184 178 186 -2 1 -203 -80 -447 -181
l-444 -184 -47 20 c-27 11 -48 22 -48 26 0 6 1017 430 1034 431 4 0 6 -8 4
-17z"/>
<path d="M2180 4614 c118 -52 370 -154 380 -154 15 0 410 163 406 168 -2 2
-88 -13 -191 -32 -103 -20 -201 -36 -219 -36 -17 0 -111 16 -210 35 -199 39
-216 41 -166 19z"/>
<path d="M1267 4144 l-118 -173 -177 -122 c-97 -67 -168 -118 -157 -115 67 23
392 161 401 170 11 11 177 407 172 411 -2 2 -56 -75 -121 -171z"/>
<path d="M3732 4310 c20 -58 163 -397 172 -406 9 -9 334 -147 401 -170 11 -3
-60 48 -157 115 l-177 122 -122 177 c-67 97 -119 170 -117 162z"/>
<path d="M490 2965 c0 -6 16 -93 35 -194 19 -100 35 -196 35 -211 0 -15 -16
-111 -35 -211 -19 -101 -35 -188 -35 -194 1 -10 52 107 130 297 l44 107 -44
108 c-77 187 -129 308 -130 298z"/>
<path d="M4546 2779 c-43 -104 -80 -198 -83 -208 -4 -17 157 -424 165 -416 2
2 -13 87 -32 190 -20 103 -36 200 -36 216 0 15 16 110 35 210 20 101 34 186
33 190 -2 5 -38 -77 -82 -182z"/>
<path d="M870 1340 c41 -29 121 -83 177 -121 l101 -68 119 -175 c65 -96 119
-173 121 -172 4 5 -161 401 -172 412 -9 9 -345 151 -406 172 -8 2 19 -19 60
-48z"/>
<path d="M264 3350 l-42 -18 -6 -69 c-3 -37 -13 -211 -22 -386 -15 -293 -15
-342 0 -630 9 -171 19 -345 22 -385 l7 -74 44 -19 c25 -10 49 -19 54 -19 5 0
9 325 9 810 0 642 -3 810 -12 809 -7 0 -32 -9 -54 -19z"/>
<path d="M4790 2560 c0 -485 4 -810 9 -810 5 0 29 9 54 19 l45 19 6 69 c3 37
13 211 22 385 15 293 15 343 0 635 -9 175 -19 349 -22 386 l-6 69 -45 19 c-25
10 -49 19 -54 19 -5 0 -9 -325 -9 -810z"/>
<path d="M381 1500 l-22 -50 258 -287 c223 -247 297 -321 545 -545 l287 -259
51 22 c27 12 50 24 50 28 0 8 -1133 1141 -1141 1141 -4 0 -16 -23 -28 -50z"/>
<path d="M4137 982 c-312 -312 -567 -570 -567 -573 0 -4 23 -16 50 -28 l51
-22 286 258 c249 224 321 295 545 545 l259 288 -22 50 c-12 27 -24 50 -28 50
-3 0 -261 -255 -574 -568z"/>
<path d="M2348 577 c-108 -45 -195 -83 -193 -85 2 -2 94 14 204 34 l201 38
201 -38 c110 -20 202 -36 204 -34 5 5 -393 168 -408 167 -6 0 -101 -37 -209
-82z"/>
<path d="M2070 464 c-14 -8 -50 -25 -80 -38 l-55 -24 625 -1 c542 0 621 2 595
14 -16 8 -55 26 -86 40 l-56 25 -459 -1 c-376 -1 -464 -3 -484 -15z"/>
<path d="M1750 321 c0 -5 9 -29 19 -54 l19 -45 69 -6 c37 -3 211 -13 386 -22
292 -15 342 -15 635 0 174 9 348 19 385 22 l69 6 19 45 c10 25 19 49 19 54 0
5 -325 9 -810 9 -485 0 -810 -4 -810 -9z"/>
</g>
</svg>
