<?xml version="1.0" encoding="UTF-8" standalone="no"?>
<!-- Created with Inkscape (http://www.inkscape.org/) -->

<svg
   width="97.320374mm"
   height="86.115509mm"
   viewBox="0 0 97.320374 86.115509"
   version="1.1"
   id="svg5"
   sodipodi:docname="frog.svg"
   inkscape:version="1.1.1 (3bf5ae0d25, 2021-09-20)"
   xmlns:inkscape="http://www.inkscape.org/namespaces/inkscape"
   xmlns:sodipodi="http://sodipodi.sourceforge.net/DTD/sodipodi-0.dtd"
   xmlns="http://www.w3.org/2000/svg"
   xmlns:svg="http://www.w3.org/2000/svg">
  <sodipodi:namedview
     id="namedview7"
     pagecolor="#ffffff"
     bordercolor="#999999"
     borderopacity="1"
     inkscape:pageshadow="0"
     inkscape:pageopacity="0"
     inkscape:pagecheckerboard="0"
     inkscape:document-units="mm"
     showgrid="false"
     inkscape:zoom="1.3771141"
     inkscape:cx="6.8984844"
     inkscape:cy="239.99464"
     inkscape:window-width="1920"
     inkscape:window-height="991"
     inkscape:window-x="-9"
     inkscape:window-y="-9"
     inkscape:window-maximized="1"
     inkscape:current-layer="layer3" />
  <defs
     id="defs2">
    <clipPath
       clipPathUnits="userSpaceOnUse"
       id="clipPath940">
      <rect
         style="fill:none;stroke:#000000;stroke-width:0.264999"
         id="rect942"
         width="102.66065"
         height="98.155167"
         x="48.112122"
         y="47.951214"
         rx="3.0000045"
         ry="3.0000045" />
    </clipPath>
    <clipPath
       clipPathUnits="userSpaceOnUse"
       id="clipPath940-3">
      <rect
         style="fill:none;stroke:#000000;stroke-width:0.264999"
         id="rect942-8"
         width="102.66065"
         height="98.155167"
         x="48.112122"
         y="47.951214"
         rx="3.0000045"
         ry="3.0000045" />
    </clipPath>
  </defs>
  <g
     inkscape:groupmode="layer"
     id="layer3"
     inkscape:label="Layer 3"
     transform="translate(-81.051941,-31.680075)">
    <path
       style="fill:#e5e7eb;stroke:#000000;stroke-width:0.264583px;stroke-linecap:butt;stroke-linejoin:miter;stroke-opacity:1;fill-opacity:1"
       d="m 129.74853,42.952245 38.09899,66.050765 -76.250724,-0.008 z"
       id="path946" />
    <path
       style="display:inline;fill:#000000;stroke-width:0.0846667"
       d="m 129.6506,117.79498 c -23.30661,-0.004 -42.618449,-0.0396 -42.915179,-0.0781 -0.29674,-0.0385 -0.78875,-0.15045 -1.09336,-0.24886 -0.30461,-0.0984 -0.74763,-0.27621 -0.98448,-0.39511 -0.23686,-0.1189 -0.65924,-0.3796 -0.93864,-0.57932 -0.2794,-0.19972 -0.6662,-0.52854 -0.85955,-0.73071 -0.19335,-0.20218 -0.50539,-0.58972 -0.69343,-0.86122 -0.18803,-0.2715 -0.4584,-0.77351 -0.6008,-1.11559 -0.14241,-0.34208 -0.31614,-0.89395 -0.38608,-1.22639 -0.0699,-0.33245 -0.12714,-0.94647 -0.12714,-1.36448 0,-0.41803 0.0573,-1.03723 0.12723,-1.37601 0.07,-0.33878 0.21652,-0.842 0.32565,-1.11826 0.10913,-0.27626 9.69482,-16.942454 21.301529,-37.035969 11.60671,-20.093516 21.25295,-36.766589 21.43609,-37.051271 0.18314,-0.284682 0.58907,-0.764838 0.90207,-1.067012 0.313,-0.302174 0.7806,-0.684712 1.03912,-0.850084 0.25852,-0.165373 0.70654,-0.40022 0.9956,-0.521885 0.28906,-0.121663 0.7824,-0.282728 1.0963,-0.35792 0.33783,-0.08092 0.93352,-0.136714 1.45974,-0.136714 0.52621,0 1.1219,0.05579 1.45973,0.136714 0.3139,0.07519 0.8092,0.236596 1.10067,0.358675 0.29146,0.122078 0.78213,0.389025 1.09037,0.593215 0.30825,0.204191 0.80655,0.632129 1.10733,0.950975 0.30078,0.318846 0.68271,0.805002 0.84874,1.080347 0.16602,0.275345 9.72213,16.807427 21.2358,36.73796 11.51367,19.930535 21.06074,36.504039 21.21572,36.830009 0.15497,0.32596 0.34885,0.84031 0.43083,1.143 0.10817,0.39939 0.14872,0.86383 0.14784,1.69333 -8.4e-4,0.83458 -0.0421,1.2915 -0.15295,1.69333 -0.0835,0.30269 -0.27928,0.81703 -0.43515,1.14299 -0.15587,0.32597 -0.47866,0.85042 -0.7173,1.16545 -0.23865,0.31502 -0.68451,0.77947 -0.9908,1.03212 -0.30628,0.25263 -0.80939,0.59024 -1.11802,0.75024 -0.30864,0.15999 -0.8088,0.3717 -1.11148,0.47046 -0.30268,0.0988 -0.83608,0.21662 -1.18533,0.26188 -0.40451,0.0524 -16.01698,0.0793 -43.01067,0.0742 z m 0.0907,-8.79197 h 38.10622 l -0.27792,-0.48684 c -0.15286,-0.26776 -8.72513,-15.129184 -19.0495,-33.02538 l -18.77157,-32.538545 -0.21234,0.365212 c -0.11657,0.200295 -8.69209,15.049249 -19.05651,32.997103 -10.36441,17.947856 -18.844379,32.64493 -18.844379,32.66017 0,0.0152 17.147799,0.0277 38.106209,0.0277 z m -15.03031,-2.54646 c -0.14203,-0.004 -0.67733,-0.15003 -1.18957,-0.32549 -0.51223,-0.17547 -1.05451,-0.38275 -1.20506,-0.46064 -0.15056,-0.0779 -0.33091,-0.25217 -0.40078,-0.38729 -0.0699,-0.13512 -0.20334,-0.4488 -0.29661,-0.69707 -0.13541,-0.36048 -0.30903,-0.57873 -0.86208,-1.08366 -0.38088,-0.34775 -0.91385,-0.93078 -1.18437,-1.29564 -0.27052,-0.36484 -0.67701,-1.03322 -0.90332,-1.48528 -0.22631,-0.45205 -0.51792,-1.156234 -0.64803,-1.564844 -0.18522,-0.5817 -0.31939,-0.83505 -0.61829,-1.16749 -0.20995,-0.23352 -0.52744,-0.49891 -0.70553,-0.58976 -0.17809,-0.0909 -0.39758,-0.24439 -0.48776,-0.34118 -0.0902,-0.0968 -0.18886,-0.35394 -0.21928,-0.57144 -0.0304,-0.21749 -0.17116,-0.75738 -0.31273,-1.19976 -0.14157,-0.44239 -0.50787,-1.30871 -0.81399,-1.92517 -0.49863,-1.0041 -0.54629,-1.14344 -0.45769,-1.3379 0.0544,-0.11939 0.23094,-0.27224 0.39233,-0.33967 0.16138,-0.0674 0.40785,-0.1226 0.5477,-0.1226 0.13986,0 0.56971,0.11972 0.95522,0.26605 0.61963,0.23518 0.80897,0.26735 1.63227,0.27731 0.85233,0.0103 0.98455,0.0346 1.55859,0.28622 0.34499,0.15123 1.06889,0.53659 1.60867,0.85635 0.53978,0.31976 1.31121,0.83047 1.7143,1.1349 0.40309,0.30443 0.75551,0.53088 0.78316,0.50323 0.0276,-0.0277 0.0503,-0.0809 0.0503,-0.11835 0,-0.0374 -0.17308,-0.25017 -0.38463,-0.47273 -0.21154,-0.22255 -0.66353,-0.78564 -1.00441,-1.25131 -0.34088,-0.46567 -0.81514,-1.13242 -1.05391,-1.48167 -0.23878,-0.34925 -0.53387,-0.83795 -0.65577,-1.08599 -0.17125,-0.34847 -0.23768,-0.65143 -0.2922,-1.33257 -0.0537,-0.67081 -0.12087,-0.98173 -0.281,-1.30054 -0.11574,-0.23044 -0.37118,-0.62139 -0.56764,-0.86877 -0.19647,-0.24739 -0.427,-0.60219 -0.5123,-0.78846 -0.0853,-0.18627 -0.15573,-0.47202 -0.15651,-0.635 -7.6e-4,-0.16298 0.0841,-0.43713 0.18864,-0.60921 0.10454,-0.17208 0.72019,-0.75065 1.36812,-1.285708 1.04155,-0.860105 1.21304,-1.039108 1.47999,-1.544805 0.16607,-0.314587 0.4932,-0.766848 0.72695,-1.005026 0.23376,-0.238177 0.60556,-0.519841 0.82624,-0.625917 0.34642,-0.166523 0.43654,-0.266852 0.65973,-0.734513 0.14692,-0.30784 0.37574,-0.630023 0.5301,-0.746386 0.14938,-0.112606 0.449,-0.287283 0.66581,-0.38817 0.26671,-0.124106 0.42802,-0.265066 0.49876,-0.435842 0.0575,-0.138825 0.21159,-0.307763 0.34242,-0.375417 0.13083,-0.06765 0.37562,-0.123007 0.54398,-0.123007 0.16835,0 0.37545,-0.03712 0.46021,-0.08248 0.0848,-0.04536 0.23172,-0.21401 0.32657,-0.374769 0.0949,-0.160758 0.27623,-0.360286 0.40307,-0.443394 0.14554,-0.09536 0.36495,-0.145258 0.59471,-0.135258 0.30253,0.01317 0.40671,-0.02677 0.61608,-0.236127 0.13858,-0.138585 0.32363,-0.251973 0.41121,-0.251973 0.0876,0 0.28949,-0.134394 0.4487,-0.298653 0.17871,-0.184387 0.4501,-0.346357 0.70931,-0.423334 0.23091,-0.06857 0.58534,-0.12468 0.78761,-0.12468 0.33255,0 0.42028,-0.04885 0.91616,-0.510171 0.30162,-0.280594 0.64604,-0.547294 0.76538,-0.592666 0.11934,-0.04537 0.43358,-0.0823 0.69831,-0.08206 0.35687,3.39e-4 0.56751,0.0526 0.81465,0.202203 0.27709,0.167721 0.41281,0.194925 0.80434,0.161215 0.40899,-0.03521 0.53485,-0.0061 0.95623,0.221132 0.26688,0.143926 0.59955,0.261683 0.73926,0.261683 0.13972,0 0.51468,-0.0447 0.83325,-0.09932 0.4966,-0.08516 0.64099,-0.07912 1.01231,0.04233 0.2382,0.07791 0.55165,0.141658 0.69656,0.141658 0.1449,0 0.37521,-0.05779 0.5118,-0.12842 0.13657,-0.07063 0.41473,-0.151226 0.61811,-0.179102 0.21872,-0.02998 0.44503,-0.0104 0.55402,0.04793 0.15316,0.08197 0.22777,0.06763 0.4421,-0.08499 0.18641,-0.132739 0.33427,-0.171198 0.53373,-0.13883 0.23807,0.03863 0.31798,8.2e-5 0.58291,-0.281245 0.17553,-0.186382 0.44459,-0.364218 0.62821,-0.415207 0.17664,-0.04905 0.38743,-0.0894 0.46843,-0.08966 0.081,-2.54e-4 0.33563,0.07111 0.56589,0.158595 0.34064,0.12943 0.47978,0.142745 0.74686,0.07146 0.18052,-0.04819 0.43295,-0.06132 0.56095,-0.0292 0.12799,0.03213 0.39664,0.209518 0.59702,0.394207 0.20035,0.184689 0.39015,0.335797 0.42175,0.335797 0.0316,0 0.17066,-0.08369 0.30902,-0.185984 0.22262,-0.16459 0.28379,-0.17433 0.53175,-0.08467 0.15411,0.05572 0.39839,0.101318 0.54286,0.101318 0.16585,0 0.3977,-0.102292 0.62899,-0.277506 0.20148,-0.152629 0.49499,-0.368227 0.65227,-0.479107 0.19179,-0.135222 0.47057,-0.222667 0.84666,-0.265578 0.3084,-0.03519 0.72235,-0.113128 0.91988,-0.173204 0.28142,-0.08558 0.48066,-0.08842 0.92044,-0.01309 0.33133,0.05675 0.7212,0.195019 0.95164,0.337488 0.2147,0.132741 0.53377,0.430642 0.70903,0.662004 0.17526,0.231361 0.39305,0.649257 0.48398,0.928657 0.0909,0.2794 0.22641,0.724519 0.30106,0.989152 0.10525,0.373076 0.2568,0.61616 0.67468,1.082198 0.43778,0.48822 0.58718,0.734323 0.79586,1.311037 0.14129,0.390496 0.31591,0.937706 0.38803,1.216024 0.0721,0.278317 0.13112,0.607199 0.13112,0.730847 0,0.12365 -0.054,0.329236 -0.11999,0.456858 -0.0719,0.138972 -0.29228,0.312736 -0.54954,0.433232 l -0.42955,0.20119 0.25321,0.153987 c 0.17847,0.108537 0.25321,0.220043 0.25321,0.377799 0,0.166612 -0.18257,0.41037 -0.71433,0.953745 -0.39288,0.401462 -0.99279,0.939481 -1.33313,1.195603 -0.34034,0.25611 -1.03806,0.88476 -1.5505,1.397 -0.80616,0.80583 -1.1981,1.1078 -2.90852,2.24089 -1.08725,0.72026 -1.93312,1.32413 -1.87971,1.34193 0.0534,0.0178 0.54643,-0.23631 1.09562,-0.5647 0.54919,-0.32839 1.20456,-0.68003 1.45638,-0.78142 0.25182,-0.10139 0.61978,-0.23474 0.81769,-0.29631 0.2551,-0.0794 0.35983,-0.0844 0.35983,-0.0172 0,0.0521 0.0269,0.0678 0.0598,0.0349 0.0329,-0.0329 0.21798,0.27508 0.4113,0.68439 0.23865,0.50528 0.59884,1.04663 1.12195,1.68626 0.42373,0.51814 0.83873,0.969 0.92219,1.00191 0.0835,0.0329 0.4976,0.056 0.92033,0.0514 0.42272,-0.005 1.07042,0.049 1.43932,0.1192 0.36893,0.0702 0.7706,0.16864 0.89262,0.21876 0.12201,0.0501 0.26489,0.18557 0.3175,0.30103 0.0526,0.11547 0.0956,0.28346 0.0956,0.37333 0,0.0899 -0.10266,0.23066 -0.22814,0.31288 -0.17235,0.11293 -0.43162,0.15415 -1.06037,0.16858 -0.55545,0.0127 -1.11426,0.0904 -1.68025,0.23347 -0.46642,0.1179 -0.9227,0.21437 -1.01397,0.21437 -0.1443,0 -0.16595,0.0596 -0.16595,0.45675 0,0.25121 0.0752,0.69889 0.16701,0.99483 0.1103,0.35543 0.34742,0.78467 0.69849,1.26447 0.29234,0.3995 0.69594,0.92215 0.89693,1.16141 0.24289,0.28918 0.36784,0.52015 0.37263,0.68886 0.004,0.1396 -0.0413,0.31229 -0.10063,0.38375 -0.0593,0.0715 -0.21258,0.12993 -0.34062,0.12993 -0.14954,0 -0.49629,-0.18742 -0.96936,-0.52392 -0.40511,-0.28816 -0.91481,-0.71928 -1.13267,-0.95806 -0.21786,-0.23877 -0.50746,-0.64118 -0.64358,-0.89424 -0.1361,-0.25306 -0.49216,-0.77504 -0.79124,-1.15995 -0.29908,-0.38492 -0.616,-0.7385 -0.70426,-0.78574 -0.11554,-0.0618 -0.22595,-0.052 -0.39409,0.0351 -0.12849,0.0666 -0.3737,0.27728 -0.54492,0.46824 -0.17246,0.19235 -0.38871,0.3472 -0.48488,0.3472 -0.0955,0 -0.22961,-0.0857 -0.2981,-0.1905 -0.0719,-0.10996 -0.14951,-0.52273 -0.18363,-0.9763 -0.0325,-0.43219 -0.0864,-0.80269 -0.11982,-0.82332 -0.0334,-0.0206 -0.33215,0.0377 -0.66391,0.12963 -0.33177,0.0919 -0.82467,0.16716 -1.09534,0.16716 -0.27067,0 -0.53786,-0.0457 -0.59373,-0.1016 -0.0559,-0.0559 -0.10161,-0.20315 -0.10161,-0.32725 0,-0.12411 0.0741,-0.31986 0.16467,-0.43501 0.0906,-0.11514 0.47159,-0.41083 0.84668,-0.65709 0.37509,-0.24625 0.68198,-0.50353 0.68198,-0.57173 0,-0.0682 -0.1677,-0.32056 -0.37266,-0.56082 -0.20496,-0.24026 -0.38593,-0.52787 -0.40217,-0.63914 l -0.0295,-0.2023 -0.381,0.29091 c -0.20955,0.16 -0.90626,0.91778 -1.54823,1.68397 -0.64199,0.76618 -1.18871,1.47745 -1.21494,1.58059 -0.0375,0.14746 0.0852,0.334 0.57421,0.87295 l 0.62191,0.68542 0.53143,-0.55545 c 0.3602,-0.37649 0.59567,-0.55545 0.73082,-0.55545 0.10967,0 0.24331,0.0529 0.29695,0.11754 0.0537,0.0647 0.14103,0.45518 0.19417,0.86784 0.0531,0.41265 0.10971,0.76671 0.1257,0.78679 0.016,0.0201 0.22857,0.0625 0.47237,0.0942 0.25578,0.0333 0.8193,0.007 1.33227,-0.0612 0.48895,-0.0654 1.05782,-0.0949 1.26415,-0.0656 0.20633,0.0293 0.60761,0.1251 0.89174,0.21285 0.28413,0.0878 0.60109,0.23828 0.70436,0.33449 0.10326,0.0962 0.18775,0.26155 0.18775,0.36745 0,0.10588 -0.10477,0.29248 -0.23283,0.41464 -0.12806,0.12217 -0.34713,0.26749 -0.48683,0.32295 -0.1397,0.0555 -0.73025,0.22433 -1.31234,0.37529 -1.00927,0.26175 -1.04656,0.2791 -0.80433,0.37413 0.1397,0.0548 0.7112,0.27639 1.27,0.49239 0.74995,0.28989 1.09914,0.47471 1.3335,0.7058 0.23104,0.22783 0.3175,0.38443 0.3175,0.57509 0,0.18727 -0.0615,0.30228 -0.21543,0.40317 -0.17673,0.11579 -0.34023,0.13142 -0.91016,0.087 -0.38211,-0.0298 -1.64342,-0.20671 -2.80291,-0.3932 -1.15949,-0.18649 -2.23943,-0.33908 -2.39986,-0.33908 -0.16043,0 -0.55853,0.081 -0.88467,0.18011 -0.44491,0.13514 -0.73361,0.17001 -1.15614,0.13963 -0.36277,-0.0261 -0.70363,-0.11277 -0.95792,-0.24361 -0.21712,-0.11172 -0.97689,-0.69843 -1.68838,-1.30379 -0.7115,-0.60537 -1.73401,-1.47603 -2.27225,-1.93481 -0.5735,-0.48883 -1.12725,-1.04662 -1.33766,-1.34742 -0.19748,-0.2823 -0.477,-0.81915 -0.62117,-1.19299 -0.18204,-0.47204 -0.24985,-0.77174 -0.22194,-0.98092 0.0221,-0.16566 0.16261,-0.89156 0.31223,-1.61311 0.14961,-0.72155 0.32533,-1.41498 0.39048,-1.54096 0.0651,-0.12598 0.11845,-0.37699 0.11845,-0.55781 0,-0.18082 -0.0249,-0.35364 -0.0553,-0.38405 -0.0304,-0.0304 -0.23043,0.1036 -0.4445,0.2978 -0.21407,0.1942 -0.43512,0.45086 -0.49123,0.57035 -0.0619,0.1319 -0.10351,0.63686 -0.10583,1.28533 -0.003,0.96505 -0.0216,1.09065 -0.18785,1.30204 -0.17378,0.22092 -0.17808,0.26281 -0.0773,0.75225 0.0587,0.28506 0.21773,0.86514 0.35336,1.28905 0.13563,0.42392 0.2466,0.87011 0.2466,0.99154 0,0.12143 -0.0834,0.29846 -0.1853,0.39341 -0.10192,0.0949 -0.30194,0.17796 -0.4445,0.18448 -0.14256,0.007 -0.6783,0.0204 -1.19054,0.0309 -0.51223,0.0105 -1.3088,0.0861 -1.77014,0.16803 -0.49588,0.0881 -1.03586,0.13109 -1.32081,0.10525 -0.38193,-0.0346 -0.74536,-0.1771 -1.75045,-0.6862 -1.06374,-0.5388 -1.29011,-0.68717 -1.40268,-0.91934 -0.0738,-0.15227 -0.24945,-0.58359 -0.39027,-0.9585 -0.14082,-0.3749 -0.33192,-0.95547 -0.42467,-1.29016 -0.0927,-0.33468 -0.27127,-1.20905 -0.39671,-1.94302 -0.12545,-0.73398 -0.25662,-1.388 -0.29151,-1.45339 -0.0489,-0.0917 -0.0967,-0.0681 -0.20928,0.10373 -0.12384,0.18901 -0.1414,0.39225 -0.11633,1.34655 l 0.0295,1.12394 1.20574,2.48202 c 0.66316,1.36512 1.2917,2.75577 1.39676,3.09034 0.15201,0.48406 0.19098,0.80716 0.19078,1.58197 -1.7e-4,0.76455 -0.0319,1.03166 -0.14744,1.24369 -0.081,0.14852 -0.2321,0.32949 -0.33586,0.40217 -0.10376,0.0727 -0.29361,0.132144 -0.42189,0.132144 -0.12827,0 -0.47222,-0.0898 -0.76432,-0.199644 -0.37879,-0.14238 -0.80979,-0.21763 -1.50284,-0.26238 -0.53445,-0.0345 -1.25182,-0.13438 -1.59415,-0.22194 -0.34233,-0.0875 -0.84667,-0.25982 -1.12076,-0.38282 -0.27408,-0.12301 -0.56001,-0.19998 -0.63539,-0.17106 -0.0754,0.0289 -0.12147,0.1002 -0.10242,0.15838 0.019,0.0582 0.35558,0.30536 0.74787,0.54927 0.39229,0.24391 1.00482,0.596334 1.36118,0.783164 0.48808,0.25589 0.74575,0.3397 1.04444,0.3397 0.21808,0 0.63347,-0.0631 0.92309,-0.14032 0.29973,-0.0799 0.62431,-0.11578 0.75344,-0.0834 0.14586,0.0366 0.24571,0.13205 0.27966,0.26731 0.029,0.11571 0.0282,0.30839 -0.002,0.4282 -0.0384,0.15307 -0.16701,0.26752 -0.43251,0.38496 -0.20782,0.0919 -0.37784,0.21751 -0.37784,0.27908 0,0.0825 0.22807,0.12409 0.86783,0.15816 0.47731,0.0254 1.00952,0.089 1.1827,0.14135 0.17318,0.0523 0.43236,0.19398 0.57594,0.3148 0.21502,0.18093 0.25655,0.27222 0.23547,0.51751 -0.0173,0.20061 -0.0947,0.34852 -0.23728,0.4531 -0.11861,0.087 -0.50266,0.19797 -0.87361,0.2524 -0.36407,0.0534 -0.63077,0.12406 -0.59267,0.15698 0.0381,0.0329 1.04083,0.33758 2.22828,0.67703 1.18745,0.33945 2.22568,0.67536 2.30717,0.74645 0.0815,0.0711 0.14816,0.23176 0.14816,0.35702 0,0.12527 -0.0667,0.28524 -0.14816,0.35552 -0.0815,0.0703 -0.44323,0.23359 -0.80385,0.36295 -0.55926,0.20061 -0.74603,0.22904 -1.27,0.19333 -0.38739,-0.0264 -0.95835,-0.15705 -1.54565,-0.35368 -0.51223,-0.17149 -1.10278,-0.33118 -1.31233,-0.35485 -0.20955,-0.0237 -0.50825,-0.0624 -0.66377,-0.0861 -0.16675,-0.0254 -0.42728,-0.17518 -0.635,-0.36512 -0.28162,-0.25751 -0.45661,-0.34017 -0.87292,-0.41234 -0.28637,-0.0496 -0.7123,-0.18737 -0.94651,-0.30605 -0.2342,-0.11868 -0.44982,-0.2546 -0.47914,-0.30206 -0.0293,-0.0474 -0.12728,-0.0863 -0.21766,-0.0863 -0.0929,0 -0.16434,0.0578 -0.16434,0.13293 0,0.0731 0.24765,0.48814 0.55034,0.92227 0.30268,0.43414 0.55033,0.84295 0.55033,0.90847 0,0.0655 -0.0457,0.16485 -0.1016,0.22073 -0.0559,0.0559 -0.21781,0.0987 -0.35983,0.0951 z m 10.49768,-19.724304 c 0.203,0.0029 0.3235,-0.07552 0.5715,-0.37222 0.17284,-0.20677 0.31426,-0.44834 0.31426,-0.53674 0,-0.09103 -0.0956,-0.20429 -0.22037,-0.26119 -0.16628,-0.0761 -0.34722,-0.0777 -0.73722,-0.007 -0.28429,0.05155 -0.62328,0.14879 -0.75331,0.21599 -0.13004,0.06725 -0.23643,0.16192 -0.23643,0.21032 0,0.04844 0.0393,0.16145 0.0873,0.25115 0.048,0.08969 0.22898,0.23795 0.40217,0.32935 0.17318,0.09142 0.43064,0.16802 0.57212,0.17002 z m 5.62744,-0.25055 c 0.18289,0 0.31375,-0.08823 0.53374,-0.35983 0.16031,-0.19791 0.35331,-0.48177 0.42901,-0.6308 0.084,-0.16536 0.13732,-0.47883 0.13707,-0.80433 -3e-4,-0.29336 -0.0398,-0.674873 -0.0878,-0.847816 -0.048,-0.172942 -0.12618,-0.338454 -0.17368,-0.367804 -0.0475,-0.02938 -0.1699,-0.03049 -0.27203,-0.0025 -0.10213,0.02799 -0.29046,0.19011 -0.41852,0.360271 -0.19358,0.257182 -0.23348,0.396369 -0.23548,0.824919 -0.002,0.39665 -0.0507,0.59362 -0.21123,0.8542 -0.11472,0.18626 -0.20877,0.42167 -0.20902,0.52311 -2.4e-4,0.10145 0.0594,0.2443 0.13261,0.3175 0.0732,0.07315 0.24208,0.13305 0.37533,0.13305 z m -3.6909,-1.01605 c 0.0335,0 0.13353,-0.0388 0.22213,-0.0862 0.0886,-0.04743 0.25754,-0.2508 0.37543,-0.45194 0.11782,-0.20114 0.21432,-0.46834 0.21432,-0.59377 0,-0.12738 -0.0577,-0.250166 -0.13057,-0.278156 -0.0718,-0.02756 -0.40519,0.04031 -0.74084,0.150826 -0.48194,0.15868 -0.61569,0.23918 -0.63619,0.38285 -0.0169,0.1187 0.0889,0.30262 0.3044,0.52917 0.18167,0.19098 0.35772,0.34724 0.39132,0.34724 z m -1.79472,-1.03359 c 0.31924,-0.10282 0.65534,-0.256705 0.74684,-0.341965 0.0915,-0.08526 0.1664,-0.197537 0.1664,-0.249497 0,-0.05196 -0.15747,-0.244269 -0.34992,-0.427348 -0.31515,-0.299791 -0.38036,-0.327271 -0.65616,-0.276511 -0.16845,0.031 -0.45866,0.139557 -0.64493,0.241245 -0.25126,0.13717 -0.34575,0.246024 -0.36595,0.421771 -0.018,0.156236 0.0483,0.336019 0.19482,0.528065 0.12214,0.16015 0.24597,0.29119 0.27527,0.29119 0.0293,0 0.31438,-0.08413 0.63363,-0.18695 z m -3.68688,-0.919449 c 0.28723,0.0031 0.58246,-0.01739 0.65616,-0.04566 0.0736,-0.02827 0.13393,-0.120131 0.13393,-0.204141 0,-0.08401 -0.12255,-0.255864 -0.27233,-0.381895 -0.24339,-0.204803 -0.32046,-0.224173 -0.72551,-0.182373 -0.24925,0.02572 -0.50774,0.09202 -0.57434,0.14732 -0.0666,0.0553 -0.12115,0.18531 -0.12115,0.288909 0,0.111672 0.0776,0.225767 0.1905,0.280237 0.10477,0.05053 0.42551,0.0945 0.71274,0.0976 z m 13.54322,-0.508954 c 0.0525,0.0037 0.14079,-0.04792 0.19619,-0.114671 0.0703,-0.08468 0.0827,-0.304115 0.0411,-0.726081 -0.047,-0.476992 -0.0275,-0.699254 0.0925,-1.052266 0.0837,-0.246148 0.1279,-0.510823 0.0982,-0.588173 -0.0297,-0.07735 -0.11881,-0.16553 -0.19811,-0.19595 -0.10215,-0.03919 -0.23546,0.04756 -0.45738,0.297643 -0.17871,0.20137 -0.35367,0.513687 -0.40747,0.727189 -0.0518,0.205825 -0.0699,0.501375 -0.0403,0.656777 0.0297,0.155403 0.12358,0.421911 0.20878,0.59224 0.0851,0.170329 0.20353,0.329249 0.26293,0.353149 0.0595,0.0239 0.15107,0.04644 0.20357,0.05014 z m -10.16099,-0.333846 c 0.0519,10e-4 0.18965,-0.07306 0.30603,-0.164605 0.1164,-0.09155 0.26215,-0.288384 0.32385,-0.437397 0.10917,-0.263554 0.10333,-0.278623 -0.21431,-0.553203 -0.1796,-0.155248 -0.40593,-0.28141 -0.50293,-0.28041 -0.097,0.001 -0.33525,0.07399 -0.5294,0.162136 -0.19415,0.08815 -0.39333,0.235638 -0.44263,0.327758 -0.071,0.132647 -0.0518,0.215603 0.0923,0.398835 0.10009,0.127243 0.33738,0.301929 0.52731,0.388189 0.18992,0.08626 0.38783,0.157697 0.43973,0.158697 z m 12.20818,-0.008 c 0.10744,0.0054 0.36111,-0.03192 0.56371,-0.08293 0.20262,-0.05102 0.48809,-0.209815 0.63446,-0.352919 0.20433,-0.199815 0.26023,-0.320688 0.24063,-0.52108 -0.0196,-0.200697 -0.0717,-0.267457 -0.22571,-0.289247 -0.13585,-0.01922 -0.29066,0.0593 -0.48136,0.244132 -0.25941,0.251435 -0.31257,0.268575 -0.68876,0.222075 -0.2242,-0.02771 -0.58485,-0.07542 -0.80144,-0.106033 -0.34209,-0.04834 -0.40593,-0.03289 -0.48653,0.117623 -0.0512,0.0953 -0.0704,0.23131 -0.0432,0.30225 0.0272,0.07094 0.20807,0.1863 0.40186,0.25636 0.1938,0.07005 0.4286,0.143703 0.5217,0.163663 0.0931,0.01996 0.25725,0.04071 0.36467,0.04611 z m 2.02212,0.0098 c 0.0609,0 0.18454,-0.07373 0.27464,-0.163836 0.0901,-0.09011 0.20424,-0.309184 0.25354,-0.486833 0.0494,-0.177649 0.09,-0.515542 0.0902,-0.750874 3.4e-4,-0.291451 -0.0695,-0.568258 -0.21893,-0.868162 -0.14888,-0.298769 -0.2853,-0.456825 -0.42442,-0.491745 -0.11413,-0.02864 -0.26084,-0.0051 -0.33094,0.05303 -0.0692,0.05747 -0.1259,0.190283 -0.1259,0.295143 0,0.10486 0.0599,0.35737 0.13315,0.561133 0.1145,0.318582 0.1185,0.458151 0.0283,0.99635 -0.0973,0.580794 -0.0935,0.634153 0.0524,0.740834 0.0865,0.06323 0.20705,0.114961 0.26805,0.114961 z m -3.06839,-1.52554 c 0.0955,-8.47e-4 0.34502,-0.119091 0.55457,-0.262764 0.36625,-0.251112 0.40634,-0.259352 1.03567,-0.212892 0.59187,0.0437 0.66321,0.03235 0.74381,-0.118236 0.061,-0.113838 0.0619,-0.217543 0.003,-0.327597 -0.0474,-0.08857 -0.28482,-0.260016 -0.5276,-0.381 -0.24278,-0.120983 -0.53872,-0.219939 -0.65763,-0.219903 -0.11892,3.6e-5 -0.44941,0.110389 -0.73443,0.245228 -0.28503,0.13484 -0.58027,0.333787 -0.65617,0.442106 -0.0758,0.108319 -0.13794,0.295146 -0.13794,0.415172 0,0.120025 0.0457,0.263947 0.1016,0.319827 0.0559,0.05588 0.17966,0.100906 0.27516,0.100059 z m -1.47739,6.832471 c 0.0699,-0.0223 0.71755,-0.30598 1.43933,-0.63049 0.72179,-0.32451 1.55999,-0.67932 1.86267,-0.78847 0.4609,-0.16621 0.66391,-0.31145 1.24926,-0.89379 0.41079,-0.40868 0.81218,-0.72975 0.97366,-0.77883 0.15111,-0.0459 0.49783,-0.10677 0.77048,-0.13521 0.27266,-0.0284 0.56985,-0.0914 0.66043,-0.13985 0.0906,-0.0485 0.40967,-0.28339 0.70907,-0.522023 0.29941,-0.238633 0.53519,-0.44307 0.52395,-0.454305 -0.0112,-0.01123 -0.28669,0.03475 -0.61214,0.102198 -0.32544,0.06744 -0.78221,0.183817 -1.01504,0.258609 -0.23284,0.07479 -0.7855,0.320421 -1.22814,0.545831 -0.44265,0.22542 -1.16655,0.70114 -1.60867,1.05716 -0.44212,0.35603 -1.03246,0.80391 -1.31185,0.9953 -0.27941,0.19139 -0.96521,0.59017 -1.524,0.88617 -0.55881,0.296 -0.95886,0.51997 -0.88901,0.4977 z m 9.35887,-5.193238 c 0.1845,-0.147019 0.44737,-0.385144 0.58414,-0.529167 0.13677,-0.144022 0.22061,-0.261858 0.18629,-0.261858 -0.0343,0 -0.16855,0.0549 -0.29832,0.122009 -0.12976,0.0671 -0.3306,0.24808 -0.44629,0.402166 -0.1157,0.154087 -0.24431,0.337308 -0.28582,0.407158 -0.0415,0.06985 0.0755,0.0067 0.26,-0.140308 z"
       id="path7381"
       sodipodi:nodetypes="sssssssscscsssssssssssssssscsssssssssccssccsscccssssssssscsssssssssssscsssssssssssssssssssssscsssssssssssssssssssssssssssssssssssssssssssssscscssssssssscssssscssssscssssssccsssssccsssssssssssssscsssscssscsccscssscssssscssscsssssssscsssccssssccsccssscsssscssscsscscsscsssssccssscscssssssssssssscssssssscccsscscssscccssccssscsssccsscssssssssssssscsssssssscssssssscssscccsssssssssssssscsscsssscssscccscssscsscscccsscsssscssccsssssccssssssssssssssss" />
  </g>
</svg>
