<?xml version="1.0" standalone="no"?>
<!DOCTYPE svg PUBLIC "-//W3C//DTD SVG 20010904//EN"
 "http://www.w3.org/TR/2001/REC-SVG-20010904/DTD/svg10.dtd">
<svg version="1.0" xmlns="http://www.w3.org/2000/svg"
 width="700.000000pt" height="700.000000pt" viewBox="0 0 700.000000 700.000000"
 preserveAspectRatio="xMidYMid meet">
<metadata>
Created by potrace 1.14, written by Peter Selinger 2001-2017
</metadata>
<g transform="translate(0.000000,700.000000) scale(0.100000,-0.100000)"
fill="#000000" stroke="none">
<path d="M3418 6755 c-2 -1 -68 -6 -148 -9 -80 -4 -174 -9 -210 -11 -126 -8
-256 -15 -370 -21 -219 -10 -241 -11 -244 -15 -6 -6 -56 -132 -56 -141 0 -4
500 -8 1110 -8 611 0 1110 3 1110 7 0 20 -55 143 -64 144 -38 4 -88 7 -226 13
-85 4 -175 9 -200 11 -25 1 -106 6 -180 10 -74 3 -171 9 -215 11 -114 7 -303
12 -307 9z"/>
<path d="M1929 6463 c-30 -26 -56 -50 -59 -54 -3 -3 -48 -43 -100 -89 -52 -47
-97 -87 -100 -90 -3 -3 -113 -103 -245 -221 -132 -119 -253 -232 -270 -251
-16 -19 -64 -72 -105 -118 -41 -45 -80 -88 -85 -94 -9 -9 -260 -289 -290 -322
-5 -6 -44 -49 -85 -94 -110 -122 -105 -107 -67 -189 l32 -71 788 788 789 789
-64 27 c-35 16 -68 30 -74 32 -6 3 -35 -17 -65 -43z"/>
<path d="M4941 6478 l-73 -31 788 -788 c433 -434 791 -786 793 -783 15 14 58
140 52 151 -3 6 -28 35 -56 65 -27 29 -68 73 -89 98 -22 25 -64 72 -95 106
-31 33 -90 98 -131 145 -207 232 -342 378 -381 413 -72 64 -211 188 -259 232
-25 22 -74 67 -110 99 -36 32 -88 79 -116 104 -173 157 -228 207 -238 213 -6
3 -44 -7 -85 -24z"/>
<path d="M2329 6415 c-12 -32 -17 -36 -39 -30 -57 14 -60 12 -128 -85 -127
-184 -212 -313 -208 -317 2 -2 40 33 85 78 44 45 81 80 81 77 0 -6 -136 -337
-165 -403 -35 -80 -135 -327 -135 -335 0 -5 26 3 57 17 31 15 63 26 70 26 7 0
13 4 13 9 0 4 6 8 14 8 7 0 40 12 72 26 33 14 266 111 519 216 555 229 595
246 618 259 13 7 37 1 94 -23 43 -17 71 -34 63 -36 -8 -3 -161 -65 -340 -139
-626 -260 -905 -375 -935 -388 -121 -51 -155 -63 -155 -56 0 5 9 31 20 57 11
26 19 51 18 56 -2 4 -91 -80 -198 -187 -107 -107 -189 -195 -183 -195 6 0 32
9 58 20 26 11 50 20 55 20 7 0 -72 -205 -110 -285 -5 -11 -64 -153 -131 -315
-207 -503 -341 -825 -345 -829 -5 -5 -55 108 -57 129 0 8 64 170 142 360 313
755 352 851 349 860 -2 6 -80 -67 -173 -161 -94 -94 -205 -205 -249 -246 l-78
-75 0 -362 c1 -211 -2 -353 -7 -341 -126 292 -348 842 -343 847 10 10 821 347
844 351 21 4 31 13 34 32 1 8 14 39 27 70 14 30 22 55 18 55 -7 0 -263 -104
-421 -171 -156 -66 -306 -126 -309 -124 -1 2 39 46 90 98 l94 95 200 82 c110
45 214 87 230 95 17 7 64 27 105 43 l75 30 127 304 c69 166 134 311 143 320 9
9 14 21 11 26 -3 5 10 45 28 88 18 43 37 90 41 104 4 14 -255 -238 -595 -578
-331 -332 -601 -604 -599 -606 2 -2 46 14 98 35 52 22 95 38 97 36 1 -1 -14
-14 -34 -27 -335 -227 -384 -263 -378 -281 3 -11 9 -28 12 -39 5 -15 -2 -23
-30 -37 -31 -15 -36 -21 -31 -43 3 -14 7 -36 10 -50 2 -14 16 -86 30 -160 15
-74 31 -162 37 -195 18 -100 25 -93 24 24 -1 61 2 119 6 129 4 11 7 12 7 3 1
-7 66 -171 146 -362 80 -192 145 -354 145 -361 0 -22 17 5 44 67 l25 60 1
-285 1 -285 25 49 c13 28 24 56 24 63 0 39 24 -5 89 -164 40 -98 79 -191 86
-208 8 -16 91 -217 185 -445 95 -228 189 -457 210 -507 21 -51 34 -93 29 -93
-5 0 -40 14 -77 31 -37 18 -75 34 -85 36 -10 1 -42 13 -70 26 -29 13 -215 90
-414 173 -401 165 -371 144 -333 229 10 22 66 157 125 300 59 143 113 274 120
290 8 17 30 68 49 115 l36 85 -1 -360 -1 -360 251 -250 c222 -221 281 -269
241 -197 -5 9 -52 121 -104 247 -52 127 -171 416 -265 643 -94 227 -171 418
-171 424 0 31 -28 -30 -153 -332 -160 -385 -166 -400 -170 -400 -2 0 -2 64 -1
143 l2 142 126 302 126 303 -122 294 c-67 162 -125 293 -129 290 -4 -2 -5 5
-2 16 3 11 1 26 -5 33 -5 6 -29 59 -53 117 l-44 105 -3 -428 c-4 -771 2 -1283
15 -1256 6 13 26 61 44 106 18 46 34 81 36 79 2 -1 -8 -59 -22 -127 -14 -68
-34 -172 -45 -230 -10 -58 -22 -117 -25 -130 -5 -21 -1 -27 31 -42 30 -15 35
-21 29 -40 -16 -52 -12 -57 100 -134 61 -42 155 -107 209 -145 55 -37 96 -68
92 -68 -4 0 -50 18 -103 41 -52 22 -96 39 -98 37 -2 -2 269 -275 602 -608 333
-333 603 -595 599 -583 -4 12 -24 62 -46 112 -21 50 -34 89 -29 86 15 -10 10
7 -6 19 -8 6 -36 65 -63 131 -26 66 -83 204 -126 306 l-77 187 -307 127 -307
127 -98 99 c-53 54 -96 99 -93 99 4 0 64 -24 111 -45 17 -8 120 -50 230 -95
110 -46 242 -100 294 -121 52 -22 96 -37 99 -34 3 2 -7 33 -22 67 l-27 63 200
-200 c111 -110 201 -195 201 -188 0 6 -9 33 -20 59 -11 26 -19 50 -18 54 2 6
188 -69 382 -153 21 -9 42 -17 46 -17 4 0 32 -11 61 -24 30 -13 198 -84 374
-156 176 -73 338 -140 360 -150 22 -9 77 -32 123 -50 45 -19 82 -36 82 -39 0
-4 -32 -18 -71 -33 -63 -25 -73 -26 -97 -14 -15 7 -171 73 -347 146 -176 72
-333 137 -350 145 -16 7 -66 27 -110 45 -44 18 -93 38 -110 45 -16 7 -70 29
-120 49 -49 20 -98 41 -107 46 -10 6 -25 10 -35 10 -10 0 86 -104 232 -251
l250 -251 355 1 c211 1 351 -2 345 -7 -5 -5 -95 -44 -200 -87 -247 -101 -472
-194 -510 -210 -57 -25 -138 -56 -140 -53 -8 12 -347 839 -349 852 -3 19 -12
29 -29 32 -7 1 -36 12 -65 24 -29 13 -55 21 -57 18 -5 -4 200 -512 257 -638
29 -64 38 -90 32 -90 -3 0 -39 34 -81 75 -42 42 -77 74 -79 72 -4 -4 78 -130
203 -310 80 -115 72 -110 138 -91 17 4 23 -2 34 -31 11 -32 16 -36 39 -30 30
6 60 12 112 21 19 4 44 8 55 11 84 16 116 22 155 28 24 4 47 8 50 10 3 2 26 6
50 10 85 12 60 21 -60 20 -65 0 -116 3 -112 6 6 6 684 288 722 301 9 4 -3 13
-33 27 -27 11 -53 21 -57 21 -5 0 -12 5 -15 10 -4 7 87 10 266 10 150 0 270
-3 267 -6 -4 -3 -32 -16 -64 -29 l-59 -24 50 -21 c28 -12 192 -80 365 -152
173 -71 318 -133 322 -136 4 -4 -62 -7 -147 -7 -84 0 -151 3 -150 6 2 3 -58
31 -133 62 -75 31 -208 85 -295 121 l-157 65 -88 -36 c-48 -19 -100 -41 -117
-48 -16 -7 -97 -40 -180 -74 -82 -34 -161 -68 -176 -76 -14 -7 -37 -15 -51
-17 -14 -2 -32 -9 -39 -14 -8 -6 -52 -26 -99 -45 -47 -18 -89 -37 -94 -41 -6
-4 374 -8 844 -8 469 0 851 2 849 5 -3 2 -50 23 -104 46 -104 43 -127 55 -85
46 109 -22 241 -49 270 -53 19 -3 77 -14 128 -25 52 -10 98 -17 102 -14 5 3
11 19 15 36 6 27 10 30 33 23 60 -16 59 -17 206 198 77 113 142 205 144 203 2
-2 -2 -13 -8 -25 -7 -12 -22 -50 -35 -84 -12 -33 -26 -70 -30 -81 -5 -11 264
252 598 585 333 333 604 606 602 608 -2 2 -18 -3 -37 -12 -43 -20 -160 -66
-167 -66 -2 0 56 41 130 92 314 214 293 195 274 256 -6 19 -2 24 29 37 20 8
36 16 36 18 0 1 -11 61 -25 132 -14 72 -28 146 -31 165 -3 19 -7 43 -10 52 -3
10 -7 30 -10 45 -5 35 -13 72 -21 98 -13 47 16 -6 47 -85 18 -47 37 -89 42
-94 4 -6 8 373 8 842 0 469 -2 852 -4 852 -2 0 -20 -42 -41 -92 -21 -51 -41
-97 -45 -101 -4 -5 1 33 11 85 10 51 29 156 44 233 14 77 28 150 30 162 4 18
-1 25 -31 38 -31 13 -35 18 -29 37 17 56 16 56 -185 194 -203 139 -230 157
-230 151 0 -2 39 -43 86 -90 47 -48 83 -87 79 -87 -4 0 -33 11 -64 25 -31 13
-162 68 -291 121 -129 53 -257 106 -285 119 -68 30 -95 38 -95 27 0 -5 12 -36
26 -68 14 -33 26 -60 25 -61 0 -2 10 -27 23 -55 12 -29 42 -100 66 -158 23
-58 48 -118 55 -135 7 -16 84 -201 170 -410 86 -209 163 -393 170 -410 34 -81
33 -77 6 -147 -14 -38 -29 -68 -32 -68 -3 0 -22 39 -41 88 -45 111 -402 972
-428 1032 -68 158 -126 305 -120 308 4 1 28 -7 54 -18 26 -11 53 -20 59 -20 7
0 -76 88 -183 195 -107 107 -196 192 -198 190 -3 -2 6 -29 18 -60 12 -31 21
-57 19 -59 -2 -2 -87 31 -189 74 -102 42 -422 175 -712 295 -291 121 -528 221
-528 225 0 3 31 17 69 31 l68 26 324 -134 c178 -74 443 -184 589 -245 146 -61
276 -113 290 -115 18 -4 -48 69 -225 247 l-250 252 -360 -1 c-323 -1 -357 1
-327 14 103 45 834 346 836 343 8 -11 348 -839 350 -852 3 -18 12 -29 29 -32
7 -1 36 -12 66 -23 29 -12 55 -20 57 -18 4 4 -7 34 -42 117 -92 214 -251 606
-248 609 2 3 35 -27 72 -65 38 -38 77 -76 87 -84 24 -19 22 -17 -64 110 -198
292 -213 312 -232 306 -11 -3 -28 -9 -39 -12 -16 -5 -23 1 -35 30 -8 20 -17
36 -19 36 -3 0 -35 -6 -73 -14 -37 -8 -81 -17 -98 -19 -93 -16 -307 -58 -322
-64 -12 -4 -15 -3 -8 4 6 6 42 23 80 38 148 58 197 54 -735 55 -469 0 -850 -4
-845 -8 6 -4 48 -23 95 -42 88 -34 122 -54 79 -44 -13 3 -35 7 -49 10 -14 2
-45 8 -70 14 -25 5 -63 12 -85 16 -22 4 -44 8 -50 10 -5 1 -26 5 -45 8 -19 4
-46 9 -60 11 -14 3 -36 7 -50 10 -14 3 -37 7 -52 10 -23 6 -28 2 -39 -30z
m868 -199 l303 -127 267 111 c148 61 278 115 291 120 13 6 21 13 19 18 -3 4
66 7 153 7 88 0 156 -3 152 -6 -4 -4 -86 -39 -182 -79 -96 -40 -188 -78 -205
-85 -95 -42 -327 -135 -337 -135 -22 0 5 -17 67 -44 l60 -25 -285 0 -285 0 63
26 c34 15 62 29 62 33 0 3 -129 60 -287 125 -159 65 -311 129 -340 142 -28 13
-56 23 -60 23 -5 0 -17 6 -26 13 -14 10 9 12 125 11 l143 -1 302 -127z m853
122 c0 -5 -4 -8 -8 -8 -5 0 -128 -23 -273 -50 -252 -48 -275 -50 -359 -35 -8
2 -98 19 -200 38 -267 52 -264 51 -272 49 -5 -1 -8 1 -8 6 0 4 252 7 560 7
308 0 560 -3 560 -7z m-1402 -139 c174 -73 362 -150 417 -172 55 -22 105 -44
110 -49 6 -6 -135 -8 -352 -6 -336 3 -363 2 -370 -14 -8 -18 -474 -490 -479
-485 -2 2 350 857 354 857 1 0 145 -59 320 -131z m-765 -308 c-10 -15 -85
-127 -167 -247 -136 -200 -154 -223 -210 -259 -34 -22 -135 -90 -225 -152 -90
-62 -166 -111 -168 -109 -4 4 777 795 785 796 2 0 -4 -13 -15 -29z m1990 -175
c205 -85 521 -216 702 -291 182 -75 344 -142 360 -149 17 -7 78 -33 136 -57
l106 -43 188 -456 c287 -694 433 -1047 471 -1137 l35 -81 -156 -379 c-86 -208
-162 -391 -170 -408 -7 -16 -34 -82 -59 -145 -26 -63 -51 -124 -56 -135 -15
-33 -91 -215 -127 -305 -19 -47 -40 -98 -48 -115 -7 -16 -25 -61 -41 -100 -15
-38 -35 -77 -43 -86 -9 -9 -83 -43 -166 -77 -82 -34 -303 -125 -490 -202 -187
-78 -492 -204 -678 -281 l-337 -139 -258 106 c-141 58 -270 112 -287 119 -16
8 -149 63 -295 123 -146 60 -382 158 -525 217 -143 59 -271 112 -285 117 -22
7 -66 108 -373 848 l-347 840 280 678 c155 372 311 749 348 838 l66 160 566
234 c311 128 583 241 605 251 22 9 119 50 215 89 96 40 189 78 206 86 31 13
76 32 82 33 1 1 170 -68 375 -153z m1852 -791 c127 -52 239 -99 250 -105 11
-5 94 -39 185 -76 91 -37 166 -68 168 -70 2 -1 -61 -159 -141 -351 -79 -191
-159 -386 -178 -432 l-34 -84 -3 334 c-1 184 2 346 7 360 8 22 5 28 -18 42
-32 19 -502 492 -481 484 8 -3 119 -49 245 -102z m620 -695 c0 -88 -2 -155 -4
-149 -4 13 -22 -29 -157 -354 l-94 -228 128 -307 127 -307 -2 -120 c-1 -66 -2
-129 -2 -140 -1 -11 -26 41 -56 115 -135 331 -250 600 -255 600 -4 0 -18 -28
-33 -62 l-26 -63 0 285 0 285 25 -60 c28 -65 44 -88 44 -64 0 9 6 29 14 45 8
16 69 162 136 324 67 162 128 310 135 328 8 17 15 32 17 32 2 0 3 -72 3 -160z
m-5677 -167 c-2 -7 11 -81 27 -163 3 -14 9 -50 15 -80 11 -62 12 -63 41 -213
19 -94 20 -116 10 -165 -7 -32 -14 -68 -17 -82 -2 -14 -9 -47 -14 -75 -11 -54
-13 -66 -26 -135 -4 -25 -8 -47 -9 -50 -1 -3 -7 -40 -15 -83 -7 -43 -16 -79
-19 -81 -5 -3 -7 1091 -2 1127 1 4 3 7 6 7 3 0 4 -3 3 -7z m5677 -573 c0 -308
-3 -560 -6 -560 -3 0 -9 21 -12 48 -4 26 -9 58 -12 72 -3 14 -7 36 -10 50 -2
13 -20 109 -40 212 -20 103 -33 199 -30 215 3 15 14 75 24 133 17 91 57 296
66 340 2 8 4 23 4 33 1 9 4 17 9 17 4 0 7 -252 7 -560z m-406 -215 c24 -56 29
-79 21 -92 -9 -17 -352 -843 -446 -1076 -24 -60 -44 -114 -44 -120 0 -6 109
98 243 231 134 133 247 242 252 242 6 0 9 137 7 362 -2 220 0 359 6 353 5 -5
21 -41 36 -80 15 -38 34 -83 41 -100 23 -50 275 -662 275 -668 0 -2 -21 -12
-47 -22 -27 -10 -61 -23 -78 -31 -114 -50 -713 -295 -727 -297 -21 -4 -31 -13
-34 -30 -1 -7 -12 -36 -24 -65 -13 -29 -20 -55 -18 -58 3 -2 61 18 129 47 68
28 189 78 269 111 80 33 159 65 175 73 87 37 158 65 161 63 1 -2 -41 -46 -94
-100 l-97 -96 -306 -127 -306 -127 -21 -46 c-19 -43 -150 -362 -210 -509 -20
-51 -42 -79 -119 -154 -51 -51 -95 -90 -98 -87 -3 3 1 18 9 34 24 51 42 93
159 379 63 154 118 290 122 303 7 23 6 23 -22 9 -35 -18 -103 -47 -103 -43 0
1 88 90 195 196 108 107 192 196 187 198 -5 1 -30 -7 -56 -18 -26 -11 -51 -20
-56 -20 -6 0 78 217 130 335 20 47 64 153 145 350 48 116 93 224 100 240 37
82 205 497 205 505 0 22 10 6 39 -65z m-4704 -1477 c55 -38 152 -104 216 -146
95 -63 123 -88 156 -137 23 -33 92 -134 153 -225 62 -91 120 -176 129 -190 15
-24 -160 149 -605 595 -115 115 -195 201 -179 190 17 -10 75 -49 130 -87z
m4479 -105 c-114 -115 -299 -300 -412 -413 -113 -113 -201 -198 -196 -189 14
24 233 347 284 419 38 53 68 79 175 152 72 48 137 92 145 98 133 92 204 140
208 140 2 0 -89 -93 -204 -207z m-649 -80 l-28 -68 -121 -49 c-67 -27 -145
-59 -174 -72 -29 -13 -55 -24 -57 -24 -3 0 -24 -9 -48 -19 -23 -10 -132 -56
-242 -101 -110 -45 -213 -87 -230 -95 -16 -7 -107 -45 -202 -84 l-172 -71 -67
30 c-37 17 -65 32 -63 34 2 2 229 97 504 211 275 114 595 247 710 295 116 48
212 85 214 84 2 -2 -9 -34 -24 -71z m-44 -105 c-10 -27 -176 -428 -197 -478
-9 -19 -46 -107 -83 -195 -45 -108 -72 -159 -81 -158 -13 1 -782 317 -835 343
-13 6 105 9 348 7 227 -1 367 2 367 8 0 7 479 495 487 495 1 0 -1 -10 -6 -22z
m-1444 -751 c5 -3 29 -8 53 -12 25 -3 77 -13 115 -20 39 -8 108 -21 155 -30
47 -9 96 -19 110 -21 14 -3 33 -6 43 -7 9 -1 17 -4 17 -7 0 -3 -252 -5 -560
-5 -308 0 -560 3 -560 6 0 3 66 18 148 34 81 15 197 37 257 50 99 20 200 25
222 12z"/>
<path d="M4985 6170 c4 -14 25 -64 46 -112 20 -49 36 -88 33 -88 -2 0 5 -17
16 -37 10 -21 58 -132 105 -248 48 -115 100 -242 116 -282 l30 -71 297 -123
c163 -67 302 -126 308 -131 7 -5 21 -10 32 -13 11 -2 40 -13 64 -24 65 -29
150 -62 153 -59 2 2 -270 275 -602 608 -351 351 -603 594 -598 580z m731 -864
c115 -116 202 -206 194 -201 -8 5 -55 36 -104 69 -49 34 -96 66 -104 71 -92
61 -278 189 -280 194 -1 3 -70 105 -153 226 -83 121 -155 229 -161 240 -6 11
81 -72 194 -185 112 -113 299 -299 414 -414z"/>
<path d="M365 4583 c-33 -14 -62 -26 -63 -28 -4 -4 -9 -69 -17 -230 -7 -160
-14 -295 -20 -380 -25 -405 -25 -477 10 -1060 3 -44 8 -136 11 -205 7 -130 11
-207 13 -226 1 -9 123 -64 144 -64 3 0 7 499 7 1110 0 874 -3 1110 -13 1109
-6 0 -39 -12 -72 -26z"/>
<path d="M6551 3500 c0 -610 3 -1110 7 -1110 20 0 142 55 143 64 0 6 2 25 4
41 1 17 6 98 9 180 4 83 9 182 11 220 30 488 34 619 22 835 -8 138 -16 278
-22 385 -2 39 -6 126 -10 195 -4 69 -8 152 -9 185 l-3 59 -68 28 c-37 15 -72
28 -76 28 -4 0 -8 -499 -8 -1110z"/>
<path d="M536 2088 c-18 -43 -37 -87 -43 -100 -2 -4 42 -58 98 -120 278 -307
263 -291 449 -498 106 -119 210 -223 325 -326 50 -45 208 -187 353 -317 l262
-237 51 21 c29 11 62 25 75 32 23 12 -5 41 -764 800 l-788 788 -18 -43z"/>
<path d="M5656 1342 l-788 -789 77 -32 c43 -18 81 -29 84 -24 3 5 69 64 146
133 77 68 147 131 156 139 8 9 96 88 195 176 238 213 319 294 525 525 95 107
176 197 179 200 9 8 254 283 268 301 10 14 7 29 -20 88 l-33 72 -789 -789z"/>
<path d="M2390 440 c0 -4 13 -38 28 -75 l28 -68 64 -3 c36 -2 108 -5 160 -8
52 -3 151 -8 220 -11 69 -3 150 -7 180 -10 260 -20 443 -23 665 -11 83 4 184
10 225 12 41 2 109 6 150 8 41 3 140 8 220 12 127 6 173 8 216 13 9 1 64 123
64 143 0 3 -499 6 -1110 6 -610 0 -1110 -3 -1110 -8z"/>
</g>
</svg>
